# xmcd
#
# Track frame offsets: 
#        150
#        21607
#        33750
#        44575
#        57030
#        76600
#        90480
#        112479
#        124380
#        139122
#        152520
#        163332
#        179325
#        197125
#        212182
#        233417
#        251580
#
# Disc length: 3522 seconds
#
# Revision: 1
# Processed by: cddbd v1.5.2PL0 Copyright (c) Steve Scherf et al.
# Submitted via: ExactAudioCopyFreeDBPlugin 1.0
#
DISCID=eb0dc011
DTITLE=Townes Van Zandt - The Very Best of Townes Van Zandt [CD1]
DYEAR=2002
DGENRE=Country
TTITLE0=For the Sake of the Song
TTITLE1=Tecumseh Valley
TTITLE2=Waitin' Around to Die
TTITLE3=Kathleen
TTITLE4=Our Mother the Mountain
TTITLE5=St. John the Gambler
TTITLE6=Tecumseh
TTITLE7=Snake Mountain Blues
TTITLE8=Colorado Girl
TTITLE9=I'll Be Here in the Morning
TTITLE10=None but the Rain
TTITLE11=F.F.V.
TTITLE12=Delta Momma Blues
TTITLE13=Turnstyled, Junkpiled
TTITLE14=Brand New Companion
TTITLE15=Rake
TTITLE16=Nothin'
EXTD=
EXTT0=
EXTT1=
EXTT2=
EXTT3=
EXTT4=
EXTT5=
EXTT6=
EXTT7=
EXTT8=
EXTT9=
EXTT10=
EXTT11=
EXTT12=
EXTT13=
EXTT14=
EXTT15=
EXTT16=
PLAYORDER=
